<mxfile host="Electron" agent="Mozilla/5.0 (Windows NT 10.0; Win64; x64) AppleWebKit/537.36 (KHTML, like Gecko) draw.io/26.0.9 Chrome/128.0.6613.186 Electron/32.2.5 Safari/537.36" version="26.0.9">
  <diagram id="C5RBs43oDa-KdzZeNtuy" name="Page-1">
    <mxGraphModel dx="724" dy="494" grid="1" gridSize="10" guides="1" tooltips="1" connect="1" arrows="1" fold="1" page="1" pageScale="1" pageWidth="827" pageHeight="1169" math="0" shadow="0">
      <root>
        <mxCell id="WIyWlLk6GJQsqaUBKTNV-0" />
        <mxCell id="WIyWlLk6GJQsqaUBKTNV-1" parent="WIyWlLk6GJQsqaUBKTNV-0" />
        <mxCell id="IBkAoVln-m4Y2JsK69sD-1" value="" style="edgeStyle=orthogonalEdgeStyle;rounded=0;orthogonalLoop=1;jettySize=auto;html=1;" edge="1" parent="WIyWlLk6GJQsqaUBKTNV-1" source="WIyWlLk6GJQsqaUBKTNV-3" target="IBkAoVln-m4Y2JsK69sD-0">
          <mxGeometry relative="1" as="geometry" />
        </mxCell>
        <mxCell id="WIyWlLk6GJQsqaUBKTNV-3" value="write_sysdump_before_boot_extend" style="rounded=1;whiteSpace=wrap;html=1;fontSize=12;glass=0;strokeWidth=1;shadow=0;" parent="WIyWlLk6GJQsqaUBKTNV-1" vertex="1">
          <mxGeometry x="160" y="80" width="200" height="60" as="geometry" />
        </mxCell>
        <mxCell id="IBkAoVln-m4Y2JsK69sD-49" value="" style="edgeStyle=orthogonalEdgeStyle;rounded=0;orthogonalLoop=1;jettySize=auto;html=1;" edge="1" parent="WIyWlLk6GJQsqaUBKTNV-1" source="IBkAoVln-m4Y2JsK69sD-0" target="IBkAoVln-m4Y2JsK69sD-48">
          <mxGeometry relative="1" as="geometry" />
        </mxCell>
        <mxCell id="IBkAoVln-m4Y2JsK69sD-121" style="edgeStyle=orthogonalEdgeStyle;rounded=0;orthogonalLoop=1;jettySize=auto;html=1;exitX=1;exitY=0.5;exitDx=0;exitDy=0;entryX=0.5;entryY=0;entryDx=0;entryDy=0;" edge="1" parent="WIyWlLk6GJQsqaUBKTNV-1">
          <mxGeometry relative="1" as="geometry">
            <mxPoint x="320" y="195" as="sourcePoint" />
            <mxPoint x="1356" y="75" as="targetPoint" />
            <Array as="points">
              <mxPoint x="380" y="195" />
              <mxPoint x="380" y="25" />
              <mxPoint x="808" y="25" />
              <mxPoint x="808" y="55" />
              <mxPoint x="1356" y="55" />
            </Array>
          </mxGeometry>
        </mxCell>
        <mxCell id="IBkAoVln-m4Y2JsK69sD-0" value="reboot_mode_check" style="rounded=0;whiteSpace=wrap;html=1;" vertex="1" parent="WIyWlLk6GJQsqaUBKTNV-1">
          <mxGeometry x="200" y="170" width="120" height="60" as="geometry" />
        </mxCell>
        <mxCell id="IBkAoVln-m4Y2JsK69sD-5" value="" style="edgeStyle=orthogonalEdgeStyle;rounded=0;orthogonalLoop=1;jettySize=auto;html=1;" edge="1" parent="WIyWlLk6GJQsqaUBKTNV-1" source="IBkAoVln-m4Y2JsK69sD-2" target="IBkAoVln-m4Y2JsK69sD-4">
          <mxGeometry relative="1" as="geometry" />
        </mxCell>
        <mxCell id="IBkAoVln-m4Y2JsK69sD-2" value="check_reboot_mode" style="rounded=0;whiteSpace=wrap;html=1;" vertex="1" parent="WIyWlLk6GJQsqaUBKTNV-1">
          <mxGeometry x="1296" y="80" width="120" height="60" as="geometry" />
        </mxCell>
        <mxCell id="IBkAoVln-m4Y2JsK69sD-7" value="" style="edgeStyle=orthogonalEdgeStyle;rounded=0;orthogonalLoop=1;jettySize=auto;html=1;" edge="1" parent="WIyWlLk6GJQsqaUBKTNV-1" source="IBkAoVln-m4Y2JsK69sD-4" target="IBkAoVln-m4Y2JsK69sD-6">
          <mxGeometry relative="1" as="geometry" />
        </mxCell>
        <mxCell id="IBkAoVln-m4Y2JsK69sD-8" value="Y" style="edgeLabel;html=1;align=center;verticalAlign=middle;resizable=0;points=[];" vertex="1" connectable="0" parent="IBkAoVln-m4Y2JsK69sD-7">
          <mxGeometry x="-0.2444" y="1" relative="1" as="geometry">
            <mxPoint as="offset" />
          </mxGeometry>
        </mxCell>
        <mxCell id="IBkAoVln-m4Y2JsK69sD-10" value="" style="edgeStyle=orthogonalEdgeStyle;rounded=0;orthogonalLoop=1;jettySize=auto;html=1;" edge="1" parent="WIyWlLk6GJQsqaUBKTNV-1" source="IBkAoVln-m4Y2JsK69sD-4" target="IBkAoVln-m4Y2JsK69sD-9">
          <mxGeometry relative="1" as="geometry" />
        </mxCell>
        <mxCell id="IBkAoVln-m4Y2JsK69sD-11" value="N" style="edgeLabel;html=1;align=center;verticalAlign=middle;resizable=0;points=[];" vertex="1" connectable="0" parent="IBkAoVln-m4Y2JsK69sD-10">
          <mxGeometry x="-0.3" relative="1" as="geometry">
            <mxPoint as="offset" />
          </mxGeometry>
        </mxCell>
        <mxCell id="IBkAoVln-m4Y2JsK69sD-4" value="hw_wdt_int_raw" style="rhombus;whiteSpace=wrap;html=1;rounded=0;" vertex="1" parent="WIyWlLk6GJQsqaUBKTNV-1">
          <mxGeometry x="1286" y="170" width="140" height="60" as="geometry" />
        </mxCell>
        <mxCell id="IBkAoVln-m4Y2JsK69sD-6" value="CMD_ABNORMAL_REBOOT_MODE" style="whiteSpace=wrap;html=1;rounded=0;" vertex="1" parent="WIyWlLk6GJQsqaUBKTNV-1">
          <mxGeometry x="1516" y="170" width="220" height="60" as="geometry" />
        </mxCell>
        <mxCell id="IBkAoVln-m4Y2JsK69sD-13" value="" style="edgeStyle=orthogonalEdgeStyle;rounded=0;orthogonalLoop=1;jettySize=auto;html=1;" edge="1" parent="WIyWlLk6GJQsqaUBKTNV-1" source="IBkAoVln-m4Y2JsK69sD-9" target="IBkAoVln-m4Y2JsK69sD-12">
          <mxGeometry relative="1" as="geometry" />
        </mxCell>
        <mxCell id="IBkAoVln-m4Y2JsK69sD-14" value="Y" style="edgeLabel;html=1;align=center;verticalAlign=middle;resizable=0;points=[];" vertex="1" connectable="0" parent="IBkAoVln-m4Y2JsK69sD-13">
          <mxGeometry x="-0.35" y="3" relative="1" as="geometry">
            <mxPoint as="offset" />
          </mxGeometry>
        </mxCell>
        <mxCell id="IBkAoVln-m4Y2JsK69sD-16" value="" style="edgeStyle=orthogonalEdgeStyle;rounded=0;orthogonalLoop=1;jettySize=auto;html=1;" edge="1" parent="WIyWlLk6GJQsqaUBKTNV-1" source="IBkAoVln-m4Y2JsK69sD-9" target="IBkAoVln-m4Y2JsK69sD-15">
          <mxGeometry relative="1" as="geometry" />
        </mxCell>
        <mxCell id="IBkAoVln-m4Y2JsK69sD-17" value="N" style="edgeLabel;html=1;align=center;verticalAlign=middle;resizable=0;points=[];" vertex="1" connectable="0" parent="IBkAoVln-m4Y2JsK69sD-16">
          <mxGeometry x="-0.275" y="-2" relative="1" as="geometry">
            <mxPoint as="offset" />
          </mxGeometry>
        </mxCell>
        <mxCell id="IBkAoVln-m4Y2JsK69sD-9" value="reg_rst_mode ==&amp;nbsp;&lt;div&gt;know&lt;/div&gt;" style="rhombus;whiteSpace=wrap;html=1;rounded=0;" vertex="1" parent="WIyWlLk6GJQsqaUBKTNV-1">
          <mxGeometry x="1256" y="270" width="200" height="60" as="geometry" />
        </mxCell>
        <mxCell id="IBkAoVln-m4Y2JsK69sD-12" value="return know mode" style="whiteSpace=wrap;html=1;rounded=0;" vertex="1" parent="WIyWlLk6GJQsqaUBKTNV-1">
          <mxGeometry x="1576" y="270" width="120" height="60" as="geometry" />
        </mxCell>
        <mxCell id="IBkAoVln-m4Y2JsK69sD-19" value="" style="edgeStyle=orthogonalEdgeStyle;rounded=0;orthogonalLoop=1;jettySize=auto;html=1;" edge="1" parent="WIyWlLk6GJQsqaUBKTNV-1" source="IBkAoVln-m4Y2JsK69sD-15" target="IBkAoVln-m4Y2JsK69sD-18">
          <mxGeometry relative="1" as="geometry" />
        </mxCell>
        <mxCell id="IBkAoVln-m4Y2JsK69sD-20" value="N" style="edgeLabel;html=1;align=center;verticalAlign=middle;resizable=0;points=[];" vertex="1" connectable="0" parent="IBkAoVln-m4Y2JsK69sD-19">
          <mxGeometry x="-0.2" relative="1" as="geometry">
            <mxPoint as="offset" />
          </mxGeometry>
        </mxCell>
        <mxCell id="IBkAoVln-m4Y2JsK69sD-22" value="" style="edgeStyle=orthogonalEdgeStyle;rounded=0;orthogonalLoop=1;jettySize=auto;html=1;" edge="1" parent="WIyWlLk6GJQsqaUBKTNV-1" source="IBkAoVln-m4Y2JsK69sD-15" target="IBkAoVln-m4Y2JsK69sD-21">
          <mxGeometry relative="1" as="geometry" />
        </mxCell>
        <mxCell id="IBkAoVln-m4Y2JsK69sD-23" value="Y" style="edgeLabel;html=1;align=center;verticalAlign=middle;resizable=0;points=[];" vertex="1" connectable="0" parent="IBkAoVln-m4Y2JsK69sD-22">
          <mxGeometry x="-0.4667" y="2" relative="1" as="geometry">
            <mxPoint as="offset" />
          </mxGeometry>
        </mxCell>
        <mxCell id="IBkAoVln-m4Y2JsK69sD-15" value="reg_rst_mode ==&amp;nbsp;&lt;div&gt;0&lt;/div&gt;" style="rhombus;whiteSpace=wrap;html=1;rounded=0;" vertex="1" parent="WIyWlLk6GJQsqaUBKTNV-1">
          <mxGeometry x="1256" y="375" width="200" height="60" as="geometry" />
        </mxCell>
        <mxCell id="IBkAoVln-m4Y2JsK69sD-18" value="CMD_UNDEFINED_MODE" style="whiteSpace=wrap;html=1;rounded=0;" vertex="1" parent="WIyWlLk6GJQsqaUBKTNV-1">
          <mxGeometry x="1576" y="375" width="160" height="60" as="geometry" />
        </mxCell>
        <mxCell id="IBkAoVln-m4Y2JsK69sD-25" value="" style="edgeStyle=orthogonalEdgeStyle;rounded=0;orthogonalLoop=1;jettySize=auto;html=1;" edge="1" parent="WIyWlLk6GJQsqaUBKTNV-1" source="IBkAoVln-m4Y2JsK69sD-21" target="IBkAoVln-m4Y2JsK69sD-24">
          <mxGeometry relative="1" as="geometry" />
        </mxCell>
        <mxCell id="IBkAoVln-m4Y2JsK69sD-28" value="Y" style="edgeLabel;html=1;align=center;verticalAlign=middle;resizable=0;points=[];" vertex="1" connectable="0" parent="IBkAoVln-m4Y2JsK69sD-25">
          <mxGeometry x="0.0133" y="-4" relative="1" as="geometry">
            <mxPoint as="offset" />
          </mxGeometry>
        </mxCell>
        <mxCell id="IBkAoVln-m4Y2JsK69sD-32" value="" style="edgeStyle=orthogonalEdgeStyle;rounded=0;orthogonalLoop=1;jettySize=auto;html=1;" edge="1" parent="WIyWlLk6GJQsqaUBKTNV-1" source="IBkAoVln-m4Y2JsK69sD-21" target="IBkAoVln-m4Y2JsK69sD-31">
          <mxGeometry relative="1" as="geometry" />
        </mxCell>
        <mxCell id="IBkAoVln-m4Y2JsK69sD-43" value="N" style="edgeLabel;html=1;align=center;verticalAlign=middle;resizable=0;points=[];" vertex="1" connectable="0" parent="IBkAoVln-m4Y2JsK69sD-32">
          <mxGeometry x="-0.1613" y="1" relative="1" as="geometry">
            <mxPoint as="offset" />
          </mxGeometry>
        </mxCell>
        <mxCell id="IBkAoVln-m4Y2JsK69sD-21" value="is_7s_reset_for_systemdump ||&lt;br&gt;&lt;div&gt;rst_mode == HWRST_STATUS_NORMAL2&lt;br&gt;&lt;/div&gt;" style="rhombus;whiteSpace=wrap;html=1;rounded=0;" vertex="1" parent="WIyWlLk6GJQsqaUBKTNV-1">
          <mxGeometry x="1201" y="470" width="310" height="80" as="geometry" />
        </mxCell>
        <mxCell id="IBkAoVln-m4Y2JsK69sD-24" value="CMD_UNKNOW_REBOOT_MODE&lt;div&gt;(manual dump)&lt;/div&gt;" style="whiteSpace=wrap;html=1;rounded=0;" vertex="1" parent="WIyWlLk6GJQsqaUBKTNV-1">
          <mxGeometry x="1586" y="480" width="200" height="60" as="geometry" />
        </mxCell>
        <mxCell id="IBkAoVln-m4Y2JsK69sD-34" value="" style="edgeStyle=orthogonalEdgeStyle;rounded=0;orthogonalLoop=1;jettySize=auto;html=1;" edge="1" parent="WIyWlLk6GJQsqaUBKTNV-1" source="IBkAoVln-m4Y2JsK69sD-31" target="IBkAoVln-m4Y2JsK69sD-33">
          <mxGeometry relative="1" as="geometry" />
        </mxCell>
        <mxCell id="IBkAoVln-m4Y2JsK69sD-44" value="Y" style="edgeLabel;html=1;align=center;verticalAlign=middle;resizable=0;points=[];" vertex="1" connectable="0" parent="IBkAoVln-m4Y2JsK69sD-34">
          <mxGeometry x="-0.3953" y="1" relative="1" as="geometry">
            <mxPoint as="offset" />
          </mxGeometry>
        </mxCell>
        <mxCell id="IBkAoVln-m4Y2JsK69sD-36" value="" style="edgeStyle=orthogonalEdgeStyle;rounded=0;orthogonalLoop=1;jettySize=auto;html=1;" edge="1" parent="WIyWlLk6GJQsqaUBKTNV-1" source="IBkAoVln-m4Y2JsK69sD-31" target="IBkAoVln-m4Y2JsK69sD-35">
          <mxGeometry relative="1" as="geometry" />
        </mxCell>
        <mxCell id="IBkAoVln-m4Y2JsK69sD-45" value="N" style="edgeLabel;html=1;align=center;verticalAlign=middle;resizable=0;points=[];" vertex="1" connectable="0" parent="IBkAoVln-m4Y2JsK69sD-36">
          <mxGeometry x="-0.075" y="2" relative="1" as="geometry">
            <mxPoint as="offset" />
          </mxGeometry>
        </mxCell>
        <mxCell id="IBkAoVln-m4Y2JsK69sD-31" value="&lt;div&gt;hw_rst_mode &amp;amp; SW_EXT_RSTN_STATUS&lt;br&gt;&lt;/div&gt;" style="rhombus;whiteSpace=wrap;html=1;rounded=0;" vertex="1" parent="WIyWlLk6GJQsqaUBKTNV-1">
          <mxGeometry x="1200" y="580" width="310" height="80" as="geometry" />
        </mxCell>
        <mxCell id="IBkAoVln-m4Y2JsK69sD-33" value="CMD_EXT_RSTN_REBOOT_MODE" style="whiteSpace=wrap;html=1;rounded=0;" vertex="1" parent="WIyWlLk6GJQsqaUBKTNV-1">
          <mxGeometry x="1596" y="590" width="210" height="60" as="geometry" />
        </mxCell>
        <mxCell id="IBkAoVln-m4Y2JsK69sD-40" value="" style="edgeStyle=orthogonalEdgeStyle;rounded=0;orthogonalLoop=1;jettySize=auto;html=1;" edge="1" parent="WIyWlLk6GJQsqaUBKTNV-1" source="IBkAoVln-m4Y2JsK69sD-35" target="IBkAoVln-m4Y2JsK69sD-39">
          <mxGeometry relative="1" as="geometry" />
        </mxCell>
        <mxCell id="IBkAoVln-m4Y2JsK69sD-46" value="Y" style="edgeLabel;html=1;align=center;verticalAlign=middle;resizable=0;points=[];" vertex="1" connectable="0" parent="IBkAoVln-m4Y2JsK69sD-40">
          <mxGeometry x="-0.3943" y="1" relative="1" as="geometry">
            <mxPoint as="offset" />
          </mxGeometry>
        </mxCell>
        <mxCell id="IBkAoVln-m4Y2JsK69sD-42" value="" style="edgeStyle=orthogonalEdgeStyle;rounded=0;orthogonalLoop=1;jettySize=auto;html=1;" edge="1" parent="WIyWlLk6GJQsqaUBKTNV-1" source="IBkAoVln-m4Y2JsK69sD-35">
          <mxGeometry relative="1" as="geometry">
            <mxPoint x="1356" y="820" as="targetPoint" />
          </mxGeometry>
        </mxCell>
        <mxCell id="IBkAoVln-m4Y2JsK69sD-47" value="N" style="edgeLabel;html=1;align=center;verticalAlign=middle;resizable=0;points=[];" vertex="1" connectable="0" parent="IBkAoVln-m4Y2JsK69sD-42">
          <mxGeometry x="-0.4" y="3" relative="1" as="geometry">
            <mxPoint as="offset" />
          </mxGeometry>
        </mxCell>
        <mxCell id="IBkAoVln-m4Y2JsK69sD-35" value="&lt;div&gt;is_7s_reset&lt;br&gt;&lt;/div&gt;" style="rhombus;whiteSpace=wrap;html=1;rounded=0;" vertex="1" parent="WIyWlLk6GJQsqaUBKTNV-1">
          <mxGeometry x="1201" y="700" width="310" height="80" as="geometry" />
        </mxCell>
        <mxCell id="IBkAoVln-m4Y2JsK69sD-39" value="CMD_NORMAL_MODE" style="whiteSpace=wrap;html=1;rounded=0;" vertex="1" parent="WIyWlLk6GJQsqaUBKTNV-1">
          <mxGeometry x="1596" y="710" width="160" height="60" as="geometry" />
        </mxCell>
        <mxCell id="IBkAoVln-m4Y2JsK69sD-41" value="CMD_UNDEFINED_MODE" style="whiteSpace=wrap;html=1;rounded=0;" vertex="1" parent="WIyWlLk6GJQsqaUBKTNV-1">
          <mxGeometry x="1279.5" y="820" width="151" height="60" as="geometry" />
        </mxCell>
        <mxCell id="IBkAoVln-m4Y2JsK69sD-51" value="" style="edgeStyle=orthogonalEdgeStyle;rounded=0;orthogonalLoop=1;jettySize=auto;html=1;" edge="1" parent="WIyWlLk6GJQsqaUBKTNV-1" source="IBkAoVln-m4Y2JsK69sD-48" target="IBkAoVln-m4Y2JsK69sD-50">
          <mxGeometry relative="1" as="geometry" />
        </mxCell>
        <mxCell id="IBkAoVln-m4Y2JsK69sD-48" value="handle_minidump_before_boot" style="whiteSpace=wrap;html=1;rounded=0;" vertex="1" parent="WIyWlLk6GJQsqaUBKTNV-1">
          <mxGeometry x="160" y="260" width="200" height="60" as="geometry" />
        </mxCell>
        <mxCell id="IBkAoVln-m4Y2JsK69sD-53" value="" style="edgeStyle=orthogonalEdgeStyle;rounded=0;orthogonalLoop=1;jettySize=auto;html=1;" edge="1" parent="WIyWlLk6GJQsqaUBKTNV-1" source="IBkAoVln-m4Y2JsK69sD-50" target="IBkAoVln-m4Y2JsK69sD-52">
          <mxGeometry relative="1" as="geometry" />
        </mxCell>
        <mxCell id="IBkAoVln-m4Y2JsK69sD-54" value="N" style="edgeLabel;html=1;align=center;verticalAlign=middle;resizable=0;points=[];" vertex="1" connectable="0" parent="IBkAoVln-m4Y2JsK69sD-53">
          <mxGeometry x="-0.1486" y="1" relative="1" as="geometry">
            <mxPoint as="offset" />
          </mxGeometry>
        </mxCell>
        <mxCell id="IBkAoVln-m4Y2JsK69sD-58" value="" style="edgeStyle=orthogonalEdgeStyle;rounded=0;orthogonalLoop=1;jettySize=auto;html=1;" edge="1" parent="WIyWlLk6GJQsqaUBKTNV-1" source="IBkAoVln-m4Y2JsK69sD-50" target="IBkAoVln-m4Y2JsK69sD-57">
          <mxGeometry relative="1" as="geometry" />
        </mxCell>
        <mxCell id="IBkAoVln-m4Y2JsK69sD-50" value="minidump_allow" style="rhombus;whiteSpace=wrap;html=1;rounded=0;" vertex="1" parent="WIyWlLk6GJQsqaUBKTNV-1">
          <mxGeometry x="185" y="360" width="150" height="80" as="geometry" />
        </mxCell>
        <mxCell id="IBkAoVln-m4Y2JsK69sD-52" value="END" style="rounded=1;whiteSpace=wrap;html=1;" vertex="1" parent="WIyWlLk6GJQsqaUBKTNV-1">
          <mxGeometry x="390" y="370" width="120" height="60" as="geometry" />
        </mxCell>
        <mxCell id="IBkAoVln-m4Y2JsK69sD-60" value="" style="edgeStyle=orthogonalEdgeStyle;rounded=0;orthogonalLoop=1;jettySize=auto;html=1;" edge="1" parent="WIyWlLk6GJQsqaUBKTNV-1" source="IBkAoVln-m4Y2JsK69sD-57" target="IBkAoVln-m4Y2JsK69sD-59">
          <mxGeometry relative="1" as="geometry" />
        </mxCell>
        <mxCell id="IBkAoVln-m4Y2JsK69sD-57" value="save_minidump" style="whiteSpace=wrap;html=1;rounded=0;" vertex="1" parent="WIyWlLk6GJQsqaUBKTNV-1">
          <mxGeometry x="200" y="480" width="120" height="60" as="geometry" />
        </mxCell>
        <mxCell id="IBkAoVln-m4Y2JsK69sD-62" value="" style="edgeStyle=orthogonalEdgeStyle;rounded=0;orthogonalLoop=1;jettySize=auto;html=1;" edge="1" parent="WIyWlLk6GJQsqaUBKTNV-1" source="IBkAoVln-m4Y2JsK69sD-59" target="IBkAoVln-m4Y2JsK69sD-61">
          <mxGeometry relative="1" as="geometry" />
        </mxCell>
        <mxCell id="IBkAoVln-m4Y2JsK69sD-59" value="&lt;b&gt;minidump_data_backup_in_partition&lt;/b&gt;&lt;div&gt;如何 sysdumpdb 分区已经保存3次&lt;/div&gt;&lt;div&gt;minidump,丢弃最后一次&lt;/div&gt;" style="whiteSpace=wrap;html=1;rounded=0;" vertex="1" parent="WIyWlLk6GJQsqaUBKTNV-1">
          <mxGeometry x="150" y="584.5" width="220" height="85" as="geometry" />
        </mxCell>
        <mxCell id="IBkAoVln-m4Y2JsK69sD-64" value="" style="edgeStyle=orthogonalEdgeStyle;rounded=0;orthogonalLoop=1;jettySize=auto;html=1;" edge="1" parent="WIyWlLk6GJQsqaUBKTNV-1" source="IBkAoVln-m4Y2JsK69sD-61" target="IBkAoVln-m4Y2JsK69sD-63">
          <mxGeometry relative="1" as="geometry" />
        </mxCell>
        <mxCell id="IBkAoVln-m4Y2JsK69sD-61" value="&lt;b&gt;handle_func_list_init&lt;/b&gt;&lt;div&gt;根据minidump_save_func_list 函数数组构建处理函数循环链表head，后续会根据dump的类型决定从哪个函数开始执行&lt;/div&gt;" style="whiteSpace=wrap;html=1;rounded=0;" vertex="1" parent="WIyWlLk6GJQsqaUBKTNV-1">
          <mxGeometry x="155" y="710" width="210" height="100" as="geometry" />
        </mxCell>
        <mxCell id="IBkAoVln-m4Y2JsK69sD-66" value="" style="edgeStyle=orthogonalEdgeStyle;rounded=0;orthogonalLoop=1;jettySize=auto;html=1;" edge="1" parent="WIyWlLk6GJQsqaUBKTNV-1" source="IBkAoVln-m4Y2JsK69sD-63" target="IBkAoVln-m4Y2JsK69sD-65">
          <mxGeometry relative="1" as="geometry" />
        </mxCell>
        <mxCell id="IBkAoVln-m4Y2JsK69sD-63" value="mini_data_init&lt;div&gt;初始化mini_data_header和mini_area_info 结构体的数据&lt;/div&gt;" style="whiteSpace=wrap;html=1;rounded=0;" vertex="1" parent="WIyWlLk6GJQsqaUBKTNV-1">
          <mxGeometry x="175" y="850" width="170" height="60" as="geometry" />
        </mxCell>
        <mxCell id="IBkAoVln-m4Y2JsK69sD-68" value="" style="edgeStyle=orthogonalEdgeStyle;rounded=0;orthogonalLoop=1;jettySize=auto;html=1;" edge="1" parent="WIyWlLk6GJQsqaUBKTNV-1" source="IBkAoVln-m4Y2JsK69sD-65" target="IBkAoVln-m4Y2JsK69sD-67">
          <mxGeometry relative="1" as="geometry" />
        </mxCell>
        <mxCell id="IBkAoVln-m4Y2JsK69sD-65" value="handle_note_data&lt;div&gt;处理第一个area note,&lt;/div&gt;&lt;div&gt;该area只有一个section (dump_report.txt)&lt;/div&gt;" style="whiteSpace=wrap;html=1;rounded=0;" vertex="1" parent="WIyWlLk6GJQsqaUBKTNV-1">
          <mxGeometry x="185" y="960" width="150" height="60" as="geometry" />
        </mxCell>
        <mxCell id="IBkAoVln-m4Y2JsK69sD-70" value="" style="edgeStyle=orthogonalEdgeStyle;rounded=0;orthogonalLoop=1;jettySize=auto;html=1;entryX=0;entryY=0.5;entryDx=0;entryDy=0;" edge="1" parent="WIyWlLk6GJQsqaUBKTNV-1" source="IBkAoVln-m4Y2JsK69sD-67" target="IBkAoVln-m4Y2JsK69sD-69">
          <mxGeometry relative="1" as="geometry" />
        </mxCell>
        <mxCell id="IBkAoVln-m4Y2JsK69sD-72" value="" style="edgeStyle=orthogonalEdgeStyle;rounded=0;orthogonalLoop=1;jettySize=auto;html=1;" edge="1" parent="WIyWlLk6GJQsqaUBKTNV-1" source="IBkAoVln-m4Y2JsK69sD-67" target="IBkAoVln-m4Y2JsK69sD-71">
          <mxGeometry relative="1" as="geometry" />
        </mxCell>
        <mxCell id="IBkAoVln-m4Y2JsK69sD-67" value="p-&amp;gt;handle_func_p();&lt;div&gt;根据dump类型选择开始执行的&lt;/div&gt;&lt;div&gt;handle func ,以handle_kernel_data&lt;/div&gt;&lt;div&gt;举例&lt;span style=&quot;background-color: transparent; color: light-dark(rgb(0, 0, 0), rgb(255, 255, 255));&quot;&gt;handle func处理过程&lt;/span&gt;&lt;/div&gt;" style="whiteSpace=wrap;html=1;rounded=0;" vertex="1" parent="WIyWlLk6GJQsqaUBKTNV-1">
          <mxGeometry x="162.5" y="1050" width="195" height="60" as="geometry" />
        </mxCell>
        <mxCell id="IBkAoVln-m4Y2JsK69sD-78" value="" style="edgeStyle=orthogonalEdgeStyle;rounded=0;orthogonalLoop=1;jettySize=auto;html=1;" edge="1" parent="WIyWlLk6GJQsqaUBKTNV-1" source="IBkAoVln-m4Y2JsK69sD-69" target="IBkAoVln-m4Y2JsK69sD-77">
          <mxGeometry relative="1" as="geometry" />
        </mxCell>
        <mxCell id="IBkAoVln-m4Y2JsK69sD-69" value="handle_kernel_data" style="whiteSpace=wrap;html=1;rounded=0;" vertex="1" parent="WIyWlLk6GJQsqaUBKTNV-1">
          <mxGeometry x="707" y="80" width="120" height="60" as="geometry" />
        </mxCell>
        <mxCell id="IBkAoVln-m4Y2JsK69sD-74" value="" style="edgeStyle=orthogonalEdgeStyle;rounded=0;orthogonalLoop=1;jettySize=auto;html=1;" edge="1" parent="WIyWlLk6GJQsqaUBKTNV-1" source="IBkAoVln-m4Y2JsK69sD-71" target="IBkAoVln-m4Y2JsK69sD-73">
          <mxGeometry relative="1" as="geometry" />
        </mxCell>
        <mxCell id="IBkAoVln-m4Y2JsK69sD-71" value="update_note_data" style="whiteSpace=wrap;html=1;rounded=0;" vertex="1" parent="WIyWlLk6GJQsqaUBKTNV-1">
          <mxGeometry x="200" y="1140" width="120" height="60" as="geometry" />
        </mxCell>
        <mxCell id="IBkAoVln-m4Y2JsK69sD-76" value="" style="edgeStyle=orthogonalEdgeStyle;rounded=0;orthogonalLoop=1;jettySize=auto;html=1;" edge="1" parent="WIyWlLk6GJQsqaUBKTNV-1" source="IBkAoVln-m4Y2JsK69sD-73" target="IBkAoVln-m4Y2JsK69sD-75">
          <mxGeometry relative="1" as="geometry" />
        </mxCell>
        <mxCell id="IBkAoVln-m4Y2JsK69sD-73" value="update_minidump_magic" style="whiteSpace=wrap;html=1;rounded=0;" vertex="1" parent="WIyWlLk6GJQsqaUBKTNV-1">
          <mxGeometry x="200" y="1230" width="120" height="60" as="geometry" />
        </mxCell>
        <mxCell id="IBkAoVln-m4Y2JsK69sD-75" value="END" style="rounded=1;whiteSpace=wrap;html=1;" vertex="1" parent="WIyWlLk6GJQsqaUBKTNV-1">
          <mxGeometry x="200" y="1320" width="120" height="60" as="geometry" />
        </mxCell>
        <mxCell id="IBkAoVln-m4Y2JsK69sD-80" value="" style="edgeStyle=orthogonalEdgeStyle;rounded=0;orthogonalLoop=1;jettySize=auto;html=1;" edge="1" parent="WIyWlLk6GJQsqaUBKTNV-1" source="IBkAoVln-m4Y2JsK69sD-77" target="IBkAoVln-m4Y2JsK69sD-79">
          <mxGeometry relative="1" as="geometry" />
        </mxCell>
        <mxCell id="IBkAoVln-m4Y2JsK69sD-77" value="get_kernel_info_paddr&lt;div&gt;#从内存地址0x80001000 读取kernel中保存的sysdump数据&lt;/div&gt;" style="whiteSpace=wrap;html=1;rounded=0;" vertex="1" parent="WIyWlLk6GJQsqaUBKTNV-1">
          <mxGeometry x="662.25" y="170" width="209.5" height="60" as="geometry" />
        </mxCell>
        <mxCell id="IBkAoVln-m4Y2JsK69sD-82" value="" style="edgeStyle=orthogonalEdgeStyle;rounded=0;orthogonalLoop=1;jettySize=auto;html=1;" edge="1" parent="WIyWlLk6GJQsqaUBKTNV-1" source="IBkAoVln-m4Y2JsK69sD-79" target="IBkAoVln-m4Y2JsK69sD-81">
          <mxGeometry relative="1" as="geometry" />
        </mxCell>
        <mxCell id="IBkAoVln-m4Y2JsK69sD-79" value="update_except_note_info&lt;div&gt;#将sysdump信息写入dump_report.txt&lt;/div&gt;" style="whiteSpace=wrap;html=1;rounded=0;" vertex="1" parent="WIyWlLk6GJQsqaUBKTNV-1">
          <mxGeometry x="675.5" y="255" width="183" height="70" as="geometry" />
        </mxCell>
        <mxCell id="IBkAoVln-m4Y2JsK69sD-84" value="" style="edgeStyle=orthogonalEdgeStyle;rounded=0;orthogonalLoop=1;jettySize=auto;html=1;" edge="1" parent="WIyWlLk6GJQsqaUBKTNV-1" source="IBkAoVln-m4Y2JsK69sD-81" target="IBkAoVln-m4Y2JsK69sD-83">
          <mxGeometry relative="1" as="geometry" />
        </mxCell>
        <mxCell id="IBkAoVln-m4Y2JsK69sD-81" value="area_init&lt;div&gt;#初始化area_info&lt;/div&gt;" style="whiteSpace=wrap;html=1;rounded=0;" vertex="1" parent="WIyWlLk6GJQsqaUBKTNV-1">
          <mxGeometry x="707" y="350" width="120" height="60" as="geometry" />
        </mxCell>
        <mxCell id="IBkAoVln-m4Y2JsK69sD-86" value="" style="edgeStyle=orthogonalEdgeStyle;rounded=0;orthogonalLoop=1;jettySize=auto;html=1;" edge="1" parent="WIyWlLk6GJQsqaUBKTNV-1" source="IBkAoVln-m4Y2JsK69sD-83" target="IBkAoVln-m4Y2JsK69sD-85">
          <mxGeometry relative="1" as="geometry" />
        </mxCell>
        <mxCell id="IBkAoVln-m4Y2JsK69sD-83" value="prepare_kernel_data&lt;div&gt;#从sysdump信息初始化各section_info，如果时zlib压缩，section 0 是compress_record_file文件，保存各section的压缩信息&lt;/div&gt;" style="whiteSpace=wrap;html=1;rounded=0;" vertex="1" parent="WIyWlLk6GJQsqaUBKTNV-1">
          <mxGeometry x="657.25" y="440" width="219.5" height="80" as="geometry" />
        </mxCell>
        <mxCell id="IBkAoVln-m4Y2JsK69sD-88" value="" style="edgeStyle=orthogonalEdgeStyle;rounded=0;orthogonalLoop=1;jettySize=auto;html=1;" edge="1" parent="WIyWlLk6GJQsqaUBKTNV-1" source="IBkAoVln-m4Y2JsK69sD-85" target="IBkAoVln-m4Y2JsK69sD-87">
          <mxGeometry relative="1" as="geometry" />
        </mxCell>
        <mxCell id="IBkAoVln-m4Y2JsK69sD-85" value="update_area_data&lt;div&gt;更新各section_info的offset和&amp;nbsp;mini_area_info的size&lt;/div&gt;" style="whiteSpace=wrap;html=1;rounded=0;" vertex="1" parent="WIyWlLk6GJQsqaUBKTNV-1">
          <mxGeometry x="685.5" y="550" width="163" height="60" as="geometry" />
        </mxCell>
        <mxCell id="IBkAoVln-m4Y2JsK69sD-92" value="" style="edgeStyle=orthogonalEdgeStyle;rounded=0;orthogonalLoop=1;jettySize=auto;html=1;" edge="1" parent="WIyWlLk6GJQsqaUBKTNV-1" source="IBkAoVln-m4Y2JsK69sD-87" target="IBkAoVln-m4Y2JsK69sD-91">
          <mxGeometry relative="1" as="geometry" />
        </mxCell>
        <mxCell id="IBkAoVln-m4Y2JsK69sD-87" value="save_area_data&lt;div&gt;# 保存area的数据到sysdumpdb&amp;nbsp;&lt;/div&gt;" style="whiteSpace=wrap;html=1;rounded=0;" vertex="1" parent="WIyWlLk6GJQsqaUBKTNV-1">
          <mxGeometry x="670.5" y="640" width="193" height="80" as="geometry" />
        </mxCell>
        <mxCell id="IBkAoVln-m4Y2JsK69sD-94" value="" style="edgeStyle=orthogonalEdgeStyle;rounded=0;orthogonalLoop=1;jettySize=auto;html=1;" edge="1" parent="WIyWlLk6GJQsqaUBKTNV-1" source="IBkAoVln-m4Y2JsK69sD-91" target="IBkAoVln-m4Y2JsK69sD-93">
          <mxGeometry relative="1" as="geometry" />
        </mxCell>
        <mxCell id="IBkAoVln-m4Y2JsK69sD-95" value="NO_COMPRESS" style="edgeLabel;html=1;align=center;verticalAlign=middle;resizable=0;points=[];" vertex="1" connectable="0" parent="IBkAoVln-m4Y2JsK69sD-94">
          <mxGeometry x="-0.116" y="-1" relative="1" as="geometry">
            <mxPoint as="offset" />
          </mxGeometry>
        </mxCell>
        <mxCell id="IBkAoVln-m4Y2JsK69sD-97" value="" style="edgeStyle=orthogonalEdgeStyle;rounded=0;orthogonalLoop=1;jettySize=auto;html=1;" edge="1" parent="WIyWlLk6GJQsqaUBKTNV-1" source="IBkAoVln-m4Y2JsK69sD-91" target="IBkAoVln-m4Y2JsK69sD-96">
          <mxGeometry relative="1" as="geometry" />
        </mxCell>
        <mxCell id="IBkAoVln-m4Y2JsK69sD-99" value="COMPRESS_ZLIB" style="edgeLabel;html=1;align=center;verticalAlign=middle;resizable=0;points=[];" vertex="1" connectable="0" parent="IBkAoVln-m4Y2JsK69sD-97">
          <mxGeometry x="-0.3269" relative="1" as="geometry">
            <mxPoint as="offset" />
          </mxGeometry>
        </mxCell>
        <mxCell id="IBkAoVln-m4Y2JsK69sD-91" value="comp_type" style="rhombus;whiteSpace=wrap;html=1;rounded=0;" vertex="1" parent="WIyWlLk6GJQsqaUBKTNV-1">
          <mxGeometry x="683.5" y="760" width="167" height="80" as="geometry" />
        </mxCell>
        <mxCell id="IBkAoVln-m4Y2JsK69sD-101" value="" style="edgeStyle=orthogonalEdgeStyle;rounded=0;orthogonalLoop=1;jettySize=auto;html=1;" edge="1" parent="WIyWlLk6GJQsqaUBKTNV-1" source="IBkAoVln-m4Y2JsK69sD-93" target="IBkAoVln-m4Y2JsK69sD-100">
          <mxGeometry relative="1" as="geometry" />
        </mxCell>
        <mxCell id="IBkAoVln-m4Y2JsK69sD-93" value="save_section_data" style="whiteSpace=wrap;html=1;rounded=0;" vertex="1" parent="WIyWlLk6GJQsqaUBKTNV-1">
          <mxGeometry x="707" y="930" width="120" height="60" as="geometry" />
        </mxCell>
        <mxCell id="IBkAoVln-m4Y2JsK69sD-98" style="edgeStyle=orthogonalEdgeStyle;rounded=0;orthogonalLoop=1;jettySize=auto;html=1;entryX=1;entryY=0.5;entryDx=0;entryDy=0;exitX=0.5;exitY=1;exitDx=0;exitDy=0;" edge="1" parent="WIyWlLk6GJQsqaUBKTNV-1" source="IBkAoVln-m4Y2JsK69sD-96" target="IBkAoVln-m4Y2JsK69sD-93">
          <mxGeometry relative="1" as="geometry" />
        </mxCell>
        <mxCell id="IBkAoVln-m4Y2JsK69sD-96" value="分配compress_buf和compress_record_buf" style="whiteSpace=wrap;html=1;rounded=0;" vertex="1" parent="WIyWlLk6GJQsqaUBKTNV-1">
          <mxGeometry x="1010" y="770" width="120" height="60" as="geometry" />
        </mxCell>
        <mxCell id="IBkAoVln-m4Y2JsK69sD-103" value="" style="edgeStyle=orthogonalEdgeStyle;rounded=0;orthogonalLoop=1;jettySize=auto;html=1;" edge="1" parent="WIyWlLk6GJQsqaUBKTNV-1" source="IBkAoVln-m4Y2JsK69sD-100" target="IBkAoVln-m4Y2JsK69sD-102">
          <mxGeometry relative="1" as="geometry" />
        </mxCell>
        <mxCell id="IBkAoVln-m4Y2JsK69sD-104" value="Y" style="edgeLabel;html=1;align=center;verticalAlign=middle;resizable=0;points=[];" vertex="1" connectable="0" parent="IBkAoVln-m4Y2JsK69sD-103">
          <mxGeometry x="-0.2395" y="2" relative="1" as="geometry">
            <mxPoint as="offset" />
          </mxGeometry>
        </mxCell>
        <mxCell id="IBkAoVln-m4Y2JsK69sD-111" value="" style="edgeStyle=orthogonalEdgeStyle;rounded=0;orthogonalLoop=1;jettySize=auto;html=1;" edge="1" parent="WIyWlLk6GJQsqaUBKTNV-1" source="IBkAoVln-m4Y2JsK69sD-100" target="IBkAoVln-m4Y2JsK69sD-110">
          <mxGeometry relative="1" as="geometry" />
        </mxCell>
        <mxCell id="IBkAoVln-m4Y2JsK69sD-112" value="N" style="edgeLabel;html=1;align=center;verticalAlign=middle;resizable=0;points=[];" vertex="1" connectable="0" parent="IBkAoVln-m4Y2JsK69sD-111">
          <mxGeometry x="-0.2977" y="3" relative="1" as="geometry">
            <mxPoint as="offset" />
          </mxGeometry>
        </mxCell>
        <mxCell id="IBkAoVln-m4Y2JsK69sD-100" value="comp_buf" style="rhombus;whiteSpace=wrap;html=1;rounded=0;" vertex="1" parent="WIyWlLk6GJQsqaUBKTNV-1">
          <mxGeometry x="727" y="1020" width="80" height="80" as="geometry" />
        </mxCell>
        <mxCell id="IBkAoVln-m4Y2JsK69sD-114" value="" style="edgeStyle=orthogonalEdgeStyle;rounded=0;orthogonalLoop=1;jettySize=auto;html=1;" edge="1" parent="WIyWlLk6GJQsqaUBKTNV-1" source="IBkAoVln-m4Y2JsK69sD-102" target="IBkAoVln-m4Y2JsK69sD-113">
          <mxGeometry relative="1" as="geometry" />
        </mxCell>
        <mxCell id="IBkAoVln-m4Y2JsK69sD-102" value="minidump_data_write" style="whiteSpace=wrap;html=1;rounded=0;" vertex="1" parent="WIyWlLk6GJQsqaUBKTNV-1">
          <mxGeometry x="707" y="1140" width="120" height="60" as="geometry" />
        </mxCell>
        <mxCell id="IBkAoVln-m4Y2JsK69sD-108" value="" style="edgeStyle=orthogonalEdgeStyle;rounded=0;orthogonalLoop=1;jettySize=auto;html=1;" edge="1" parent="WIyWlLk6GJQsqaUBKTNV-1" source="IBkAoVln-m4Y2JsK69sD-105" target="IBkAoVln-m4Y2JsK69sD-107">
          <mxGeometry relative="1" as="geometry" />
        </mxCell>
        <mxCell id="IBkAoVln-m4Y2JsK69sD-109" value="Y" style="edgeLabel;html=1;align=center;verticalAlign=middle;resizable=0;points=[];" vertex="1" connectable="0" parent="IBkAoVln-m4Y2JsK69sD-108">
          <mxGeometry x="-0.2" y="-1" relative="1" as="geometry">
            <mxPoint as="offset" />
          </mxGeometry>
        </mxCell>
        <mxCell id="IBkAoVln-m4Y2JsK69sD-105" value="compress_record_buf" style="rhombus;whiteSpace=wrap;html=1;rounded=0;" vertex="1" parent="WIyWlLk6GJQsqaUBKTNV-1">
          <mxGeometry x="685.5" y="1320" width="163" height="80" as="geometry" />
        </mxCell>
        <mxCell id="IBkAoVln-m4Y2JsK69sD-117" value="" style="edgeStyle=orthogonalEdgeStyle;rounded=0;orthogonalLoop=1;jettySize=auto;html=1;" edge="1" parent="WIyWlLk6GJQsqaUBKTNV-1" source="IBkAoVln-m4Y2JsK69sD-107" target="IBkAoVln-m4Y2JsK69sD-116">
          <mxGeometry relative="1" as="geometry" />
        </mxCell>
        <mxCell id="IBkAoVln-m4Y2JsK69sD-107" value="写入压缩数据到section0" style="whiteSpace=wrap;html=1;rounded=0;" vertex="1" parent="WIyWlLk6GJQsqaUBKTNV-1">
          <mxGeometry x="707" y="1430" width="120" height="60" as="geometry" />
        </mxCell>
        <mxCell id="IBkAoVln-m4Y2JsK69sD-110" value="直接写入数据到sysdumpdb" style="whiteSpace=wrap;html=1;rounded=0;" vertex="1" parent="WIyWlLk6GJQsqaUBKTNV-1">
          <mxGeometry x="867" y="1040" width="120" height="60" as="geometry" />
        </mxCell>
        <mxCell id="IBkAoVln-m4Y2JsK69sD-115" value="" style="edgeStyle=orthogonalEdgeStyle;rounded=0;orthogonalLoop=1;jettySize=auto;html=1;" edge="1" parent="WIyWlLk6GJQsqaUBKTNV-1" source="IBkAoVln-m4Y2JsK69sD-113" target="IBkAoVln-m4Y2JsK69sD-105">
          <mxGeometry relative="1" as="geometry" />
        </mxCell>
        <mxCell id="IBkAoVln-m4Y2JsK69sD-113" value="压缩section数据并写入sysdumpdb" style="whiteSpace=wrap;html=1;rounded=0;" vertex="1" parent="WIyWlLk6GJQsqaUBKTNV-1">
          <mxGeometry x="707" y="1230" width="120" height="60" as="geometry" />
        </mxCell>
        <mxCell id="IBkAoVln-m4Y2JsK69sD-119" value="" style="edgeStyle=orthogonalEdgeStyle;rounded=0;orthogonalLoop=1;jettySize=auto;html=1;" edge="1" parent="WIyWlLk6GJQsqaUBKTNV-1" source="IBkAoVln-m4Y2JsK69sD-116" target="IBkAoVln-m4Y2JsK69sD-118">
          <mxGeometry relative="1" as="geometry" />
        </mxCell>
        <mxCell id="IBkAoVln-m4Y2JsK69sD-116" value="update_area_data&lt;div&gt;更新各section_info的offset和&amp;nbsp;mini_area_info的size&lt;/div&gt;" style="whiteSpace=wrap;html=1;rounded=0;" vertex="1" parent="WIyWlLk6GJQsqaUBKTNV-1">
          <mxGeometry x="690.5" y="1520" width="153" height="60" as="geometry" />
        </mxCell>
        <mxCell id="IBkAoVln-m4Y2JsK69sD-118" value="写入header、area info、area header、section info到sysdumpdb" style="whiteSpace=wrap;html=1;rounded=0;" vertex="1" parent="WIyWlLk6GJQsqaUBKTNV-1">
          <mxGeometry x="707" y="1620" width="120" height="60" as="geometry" />
        </mxCell>
      </root>
    </mxGraphModel>
  </diagram>
</mxfile>
